HIERARCHY
ROOT root
{
	OFFSET	0	13.1	24.9
	CHANNELS 6  Xposition Yposition Zposition Xrotation Yrotation Zrotation
	JOINT spine_1
	{
		OFFSET	0	9.99999	0
		CHANNELS 3  Xrotation Yrotation Zrotation
		JOINT spine_2
		{
			OFFSET	0	112	-10
			CHANNELS 3  Xrotation Yrotation Zrotation
			JOINT spine_3
			{
				OFFSET	0	206.5	19.3
				CHANNELS 3  Xrotation Yrotation Zrotation
				JOINT spine_4
				{
					OFFSET	0	110.4	14.6
					CHANNELS 3  Xrotation Yrotation Zrotation
					JOINT neck_1
					{
						OFFSET	0	71.8	-50.3
						CHANNELS 3  Xrotation Yrotation Zrotation
						JOINT neck_2
						{
							OFFSET	0	86.2	-25.8
							CHANNELS 3  Xrotation Yrotation Zrotation
							JOINT head_ee
							{
								OFFSET	0	179.8	-8.7
								CHANNELS 3  Xrotation Yrotation Zrotation
								End Site
								{
									OFFSET	1	0	0
								}
							}
						}
					}
					JOINT left_clavicle
					{
						OFFSET	-43.2	22.4	-70.8
						CHANNELS 3  Xrotation Yrotation Zrotation
						JOINT left_shoulder
						{
							OFFSET	-93.9	-5.79999	48.7
							CHANNELS 3  Xrotation Yrotation Zrotation
							JOINT left_elbow
							{
								OFFSET	-291.4	-30.8	15.2
								CHANNELS 3  Xrotation Yrotation Zrotation
								JOINT left_lowarm_twist
								{
									OFFSET	-110.7	-3.89999	13.6
									CHANNELS 3  Xrotation Yrotation Zrotation
									JOINT left_hand
									{
										OFFSET	-110.7	-3.89999	13.6
										CHANNELS 3  Xrotation Yrotation Zrotation
										JOINT left_ee
										{
											OFFSET	-80.8	-5.10001	12.1
											CHANNELS 3  Xrotation Yrotation Zrotation
											End Site
											{
												OFFSET	1	0	0
											}
										}
									}
								}
							}
						}
					}
					JOINT right_clavicle
					{
						OFFSET	43.2	22.4	-70.8
						CHANNELS 3  Xrotation Yrotation Zrotation
						JOINT right_shoulder
						{
							OFFSET	93.9	-5.79999	48.7
							CHANNELS 3  Xrotation Yrotation Zrotation
							JOINT right_elbow
							{
								OFFSET	291.4	-30.8	15.2
								CHANNELS 3  Xrotation Yrotation Zrotation
								JOINT right_lowarm_twist
								{
									OFFSET	110.7	-3.89999	13.6
									CHANNELS 3  Xrotation Yrotation Zrotation
									JOINT right_hand
									{
										OFFSET	110.7	-3.89999	13.6
										CHANNELS 3  Xrotation Yrotation Zrotation
										JOINT right_ee
										{
											OFFSET	80.8	-5.10001	12.1
											CHANNELS 3  Xrotation Yrotation Zrotation
											End Site
											{
												OFFSET	1	0	0
											}
										}
									}
								}
							}
						}
					}
				}
			}
		}
	}
	JOINT left_hip
	{
		OFFSET	-82.8	-127.5	0.300001
		CHANNELS 3  Xrotation Yrotation Zrotation
		JOINT left_knee
		{
			OFFSET	-28.2	-396.7	2.2
			CHANNELS 3  Xrotation Yrotation Zrotation
			JOINT left_ankle
			{
				OFFSET	-11.7	-411.3	35.4
				CHANNELS 3  Xrotation Yrotation Zrotation
				JOINT left_toes
				{
					OFFSET	0	-60	-88.6
					CHANNELS 3  Xrotation Yrotation Zrotation
					JOINT left_foot_ee
					{
						OFFSET	-22.5	-16.5	-42.2
						CHANNELS 3  Xrotation Yrotation Zrotation
						End Site
						{
							OFFSET	1	0	0
						}
					}
				}
			}
		}
	}
	JOINT right_hip
	{
		OFFSET	82.8	-127.5	0.300001
		CHANNELS 3  Xrotation Yrotation Zrotation
		JOINT right_knee
		{
			OFFSET	28.2	-396.7	2.2
			CHANNELS 3  Xrotation Yrotation Zrotation
			JOINT right_ankle
			{
				OFFSET	11.7	-411.3	35.4
				CHANNELS 3  Xrotation Yrotation Zrotation
				JOINT right_toes
				{
					OFFSET	0	-60	-88.6
					CHANNELS 3  Xrotation Yrotation Zrotation
					JOINT right_foot_ee
					{
						OFFSET	22.5	-16.5	-42.2
						CHANNELS 3  Xrotation Yrotation Zrotation
						End Site
						{
							OFFSET	1	0	0
						}
					}
				}
			}
		}
	}
}
MOTION
Frames: 8
Frame Time: 0.02
2869.78 683.106 -514.588 165.02 -61.7226 171.235 -3.76065 -0.240065 -2.23345 -3.75788 -0.097495 -2.24419 -3.75005 0.520622 -2.18518 -3.75668 0.169072 -2.23994 7.66322 0.19008 5.44399 7.8048 -4.57813 6.45151 -0.0 0.0 -0.0 6.8651 9.97828 13.1406 -13.2742 -22.4176 74.6858 0.328915 -9.25435 0.0266209 35.006 -0.115303 -4.40152 0.164749 27.0112 11.5739 -0.0 0.0 -0.0 6.99353 7.56338 -13.4618 2.75479 31.8454 -46.4609 2.23276 47.8761 -0.991296 5.51022 -0.161295 0.685096 -0.984996 2.88882 7.86507 0.0 0.0 0.0 23.8723 -16.0327 -5.83663 -4.49805 0.158888 0.671854 -12.66 29.6244 2.02698 -32.3159 0.0 0.0 -0.0 0.0 -0.0 -15.4136 3.24118 1.66883 -27.1913 -0.141356 -4.13142 34.9273 15.0752 4.6907 -11.9641 0.0 0.0 0.0 0.0 0.0 
2906.83 685.229 -513.472 164.872 -61.2156 171.612 -3.71968 -0.364725 -2.41686 -3.71645 -0.210241 -2.43515 -3.7026 0.462432 -2.40009 -3.71063 0.0776966 -2.44297 9.16928 1.55802 6.16178 9.30966 -3.04968 7.45939 -0.0 0.0 -0.0 7.1123 11.4694 13.5117 -11.9485 -22.3131 74.9075 0.383853 -10.7665 0.0361716 34.3644 -0.0890335 -4.32382 -0.567299 26.0728 7.11316 -0.0 0.0 -0.0 6.66213 6.73871 -12.7978 -0.334605 31.8659 -46.0674 2.1361 46.6129 -0.920324 4.30688 -0.131711 0.534229 -1.11534 0.872733 7.85703 0.0 0.0 0.0 22.3405 -17.3597 -5.86586 -6.10215 0.202716 0.91412 -11.0889 29.5735 1.77181 -29.6068 0.0 0.0 -0.0 0.0 -0.0 -16.8716 6.01742 1.62496 -25.6873 -0.184948 -3.90472 31.5756 10.5837 4.22816 -11.9196 0.0 0.0 0.0 0.0 0.0 
2939.97 689.871 -508.956 165.143 -60.6265 172.63 -3.61327 -0.3517 -2.44202 -3.60997 -0.195644 -2.45943 -3.59668 0.478645 -2.42035 -3.60485 0.0905095 -2.46554 7.95095 0.300089 5.93027 8.11715 -4.84769 7.05753 -0.0 0.0 -0.0 7.74112 14.9336 14.3664 -9.61405 -22.9397 73.0744 0.264954 -7.47753 0.0173139 34.6877 -0.102161 -4.36301 -0.31102 24.9604 8.13306 -0.0 0.0 -0.0 6.19764 5.69959 -11.8734 -1.98451 31.0237 -47.5426 1.93815 43.8292 -0.779767 5.92926 -0.170853 0.737772 -1.05048 0.552637 7.27737 0.0 0.0 0.0 21.5059 -17.3766 -6.32126 -9.24341 0.268811 1.39157 -5.40833 29.444 0.856589 -29.5968 0.0 0.0 -0.0 0.0 -0.0 -15.7232 7.42549 1.90782 -28.7203 -0.0909508 -4.36065 29.5366 11.9584 4.03795 -11.6281 0.0 0.0 0.0 0.0 0.0 
2968.42 692.92 -506.355 163.497 -62.3178 171.153 -3.57204 -0.488527 -2.73146 -3.56794 -0.313795 -2.75698 -3.54653 0.443173 -2.73918 -3.55699 0.00518251 -2.77477 10.4754 0.717885 5.9774 10.6413 -4.33846 7.34554 -0.0 0.0 -0.0 7.99481 12.6188 14.9853 -8.28539 -22.7591 73.1872 0.403052 -11.2914 0.0398443 34.361 -0.0888961 -4.32341 -0.10321 22.805 8.51895 -0.0 0.0 -0.0 6.00315 5.784 -11.4714 -4.83279 30.6967 -47.3418 1.61098 38.5881 -0.564003 5.23766 -0.154873 0.650871 -0.761463 1.8015 5.87742 0.0 0.0 0.0 20.0221 -17.492 -5.32884 -9.70615 0.276332 1.46218 -2.00071 26.1765 0.308716 -30.906 0.0 0.0 -0.0 0.0 -0.0 -15.168 6.12137 1.54743 -31.472 0.0151261 -4.76958 28.5374 7.5 3.83983 -11.7177 0.0 0.0 0.0 0.0 0.0 
2991.97 701.188 -505.9 163.39 -61.6814 171.291 -3.48825 -0.485012 -3.15069 -3.48277 -0.283646 -3.17513 -3.45901 0.580637 -3.13449 -3.47271 0.0785779 -3.1868 7.16065 -0.694261 5.83506 7.35628 -6.38814 6.85072 -0.0 0.0 -0.0 8.07154 13.1335 15.0785 -8.39816 -26.4278 72.4157 0.49374 -13.744 0.0595047 33.3277 -0.048432 -4.19769 -0.384404 21.7123 6.45019 -0.0 0.0 -0.0 5.56042 6.90978 -10.5152 -7.25647 30.4454 -47.6992 1.44308 35.5573 -0.462752 4.16909 -0.128122 0.516994 -0.61429 1.5645 4.7834 0.0 0.0 0.0 19.9158 -16.6677 -4.57747 -12.6972 0.31116 1.91974 -1.25645 21.028 0.188931 -30.3753 0.0 0.0 -0.0 0.0 -0.0 -12.1253 7.59218 1.94225 -36.3654 0.251872 -5.48274 29.5568 11.0253 4.01941 -11.163 0.0 0.0 0.0 0.0 0.0 
3006.54 704.239 -504.079 164.266 -61.4914 172.19 -3.29406 -0.338578 -3.29961 -3.28802 -0.128047 -3.31445 -3.27263 0.757755 -3.2293 -3.2871 0.238531 -3.30834 5.81127 0.880557 8.25883 6.09167 -5.79853 9.6028 -0.0 0.0 -0.0 8.30058 15.5917 15.2492 -5.30092 -28.9644 71.4932 0.564861 -15.6326 0.0775407 31.0014 0.0343218 -3.91213 -0.963742 19.5439 2.12832 -0.0 0.0 -0.0 5.17691 7.8141 -9.67961 -8.89151 30.418 -48.4738 1.28057 32.3878 -0.371905 3.8121 -0.118629 0.47238 -0.451355 0.690022 3.31207 0.0 0.0 0.0 18.7147 -16.9592 -4.484 -12.8527 0.312317 1.94358 7.01573 19.0823 -1.02594 -29.6617 0.0 0.0 -0.0 0.0 -0.0 -8.84314 9.12783 2.05991 -41.5491 0.568249 -6.21376 29.9691 8.28034 4.01036 -10.4848 0.0 0.0 0.0 0.0 0.0 
3028.75 713.555 -501.886 162.864 -61.4006 170.857 -3.37628 -0.368353 -3.4308 -3.36974 -0.149428 -3.44726 -3.35194 0.777147 -3.36194 -3.36763 0.236769 -3.44237 2.83946 1.80679 9.11306 3.12349 -4.63045 10.2987 -0.0 0.0 -0.0 8.39997 17.3921 15.2261 -3.4165 -30.762 70.7555 0.721596 -19.6698 0.125096 29.5334 0.0805394 -3.73034 -1.34283 18.0617 -0.799297 -0.0 0.0 -0.0 4.90978 8.6857 -9.07815 -11.6854 29.8491 -48.996 1.1174 28.9648 -0.28862 3.25821 -0.10335 0.403277 -0.304649 0.0502895 2.05621 0.0 0.0 0.0 17.518 -17.7521 -3.56897 -14.9757 0.32164 2.26917 11.3065 20.8679 -1.64218 -28.5051 0.0 0.0 -0.0 0.0 -0.0 -4.33653 11.9248 0.159885 -45.591 0.860214 -6.76254 26.769 4.74371 3.6015 -11.3646 0.0 0.0 0.0 0.0 0.0 
3045.85 718.245 -498.702 162.203 -60.0798 170.62 -3.43885 -0.350959 -3.65344 -3.43143 -0.117929 -3.66835 -3.41392 0.870629 -3.56562 -3.43154 0.296976 -3.65822 1.94506 2.43833 9.16998 2.21028 -3.45903 10.3168 -0.0 0.0 -0.0 8.5159 18.399 15.2995 -1.96298 -32.3633 70.594 0.792774 -21.4407 0.15009 28.1319 0.120304 -3.55573 -1.59438 15.9532 -3.30157 -0.0 0.0 -0.0 4.69923 9.83543 -8.56989 -13.624 30.004 -49.5201 1.0045 26.4543 -0.236111 2.42581 -0.0791315 0.299708 -0.149886 -0.886864 0.625123 0.0 0.0 0.0 15.6546 -18.5729 -3.97578 -16.7511 0.320171 2.54154 16.1107 19.4028 -2.2869 -27.0683 0.0 0.0 -0.0 0.0 -0.0 -2.18386 13.0211 -1.48381 -48.8601 1.12435 -7.19075 25.4216 2.9429 3.42674 -11.5382 0.0 0.0 0.0 0.0 0.0 
